<?xml version="1.0" encoding="UTF-8"?>
<svg width="19px" height="24px" viewBox="0 0 19 24" version="1.1" xmlns="http://www.w3.org/2000/svg" xmlns:xlink="http://www.w3.org/1999/xlink">
    <!-- Generator: Sketch 50.2 (55047) - http://www.bohemiancoding.com/sketch -->
    <title>Rectangle 272</title>
    <desc>Created with Sketch.</desc>
    <defs>
        <path d="M7,7 L10,4 L10,2 L1,2 L1,4 L4,7 L4,8 L1,11 L1,14 L10,14 L10,11 L7,8 L7,7 L7,7 Z M0,0 L11,0 L11,1 L0,1 L0,0 L0,0 Z M0,15 L11,15 L11,16 L0,16 L0,15 L0,15 Z M2,12 L3,12 L3,13 L2,13 L2,12 L2,12 Z M4,12 L5,12 L5,13 L4,13 L4,12 L4,12 Z M3,11 L4,11 L4,12 L3,12 L3,11 L3,11 Z M5,11 L6,11 L6,12 L5,12 L5,11 L5,11 Z M7,11 L8,11 L8,12 L7,12 L7,11 L7,11 Z M6,10 L7,10 L7,11 L6,11 L6,10 L6,10 Z M4,10 L5,10 L5,11 L4,11 L4,10 L4,10 Z M5,9 L6,9 L6,10 L5,10 L5,9 L5,9 Z M5,7 L6,7 L6,8 L5,8 L5,7 L5,7 Z M6,5 L7,5 L7,6 L6,6 L6,5 L6,5 Z M5,4 L6,4 L6,5 L5,5 L5,4 L5,4 Z M3,4 L4,4 L4,5 L3,5 L3,4 L3,4 Z M7,4 L8,4 L8,5 L7,5 L7,4 L7,4 Z M4,5 L5,5 L5,6 L4,6 L4,5 L4,5 Z M6,12 L7,12 L7,13 L6,13 L6,12 L6,12 Z M8,12 L9,12 L9,13 L8,13 L8,12 L8,12 Z" id="path-1"></path>
        <filter x="-54.5%" y="-31.2%" width="209.1%" height="175.0%" filterUnits="objectBoundingBox" id="filter-2">
            <feMorphology radius="1" operator="dilate" in="SourceAlpha" result="shadowSpreadOuter1"></feMorphology>
            <feOffset dx="0" dy="1" in="shadowSpreadOuter1" result="shadowOffsetOuter1"></feOffset>
            <feGaussianBlur stdDeviation="1.5" in="shadowOffsetOuter1" result="shadowBlurOuter1"></feGaussianBlur>
            <feComposite in="shadowBlurOuter1" in2="SourceAlpha" operator="out" result="shadowBlurOuter1"></feComposite>
            <feColorMatrix values="0 0 0 0 0   0 0 0 0 0   0 0 0 0 0  0 0 0 0.2 0" type="matrix" in="shadowBlurOuter1"></feColorMatrix>
        </filter>
    </defs>
    <g id="Symbols" stroke="none" stroke-width="1" fill="none" fill-rule="evenodd">
        <g id="Cursor-/-Hourglass" transform="translate(4.000000, 3.000000)">
            <g id="Rectangle-272">
                <use fill="black" fill-opacity="1" filter="url(#filter-2)" xlink:href="#path-1"></use>
                <path stroke-opacity="0.8" stroke="#000000" stroke-width="1" d="M7.5,7.20710678 L7.5,7.79289322 L10.5,10.7928932 L10.5,14.5 L0.5,14.5 L0.5,10.7928932 L3.5,7.79289322 L3.5,7.20710678 L0.5,4.20710678 L0.5,1.5 L10.5,1.5 L10.5,4.20710678 L7.5,7.20710678 Z M-0.5,-0.5 L11.5,-0.5 L11.5,1.5 L-0.5,1.5 L-0.5,-0.5 Z M-0.5,14.5 L11.5,14.5 L11.5,16.5 L-0.5,16.5 L-0.5,14.5 Z M2.5,12.5 L3,12.5 L2.5,12 L2.5,12.5 L2.5,12 L2,12.5 L2.5,12.5 L2,12.5 L2.5,13 L2.5,12.5 L2.5,13 L3,12.5 L2.5,12.5 Z M4.5,12.5 L5,12.5 L4.5,12 L4.5,12.5 L4.5,12 L4,12.5 L4.5,12.5 L4,12.5 L4.5,13 L4.5,12.5 L4.5,13 L5,12.5 L4.5,12.5 Z M3.5,11.5 L4,11.5 L3.5,11 L3.5,11.5 L3.5,11 L3,11.5 L3.5,11.5 L3,11.5 L3.5,12 L3.5,11.5 L3.5,12 L4,11.5 L3.5,11.5 Z M5.5,11.5 L6,11.5 L5.5,11 L5.5,11.5 L5.5,11 L5,11.5 L5.5,11.5 L5,11.5 L5.5,12 L5.5,11.5 L5.5,12 L6,11.5 L5.5,11.5 Z M7.5,11.5 L8,11.5 L7.5,11 L7.5,11.5 L7.5,11 L7,11.5 L7.5,11.5 L7,11.5 L7.5,12 L7.5,11.5 L7.5,12 L8,11.5 L7.5,11.5 Z M6.5,10.5 L7,10.5 L6.5,10 L6.5,10.5 L6.5,10 L6,10.5 L6.5,10.5 L6,10.5 L6.5,11 L6.5,10.5 L6.5,11 L7,10.5 L6.5,10.5 Z M4.5,10.5 L5,10.5 L4.5,10 L4.5,10.5 L4.5,10 L4,10.5 L4.5,10.5 L4,10.5 L4.5,11 L4.5,10.5 L4.5,11 L5,10.5 L4.5,10.5 Z M5.5,9.5 L6,9.5 L5.5,9 L5.5,9.5 L5.5,9 L5,9.5 L5.5,9.5 L5,9.5 L5.5,10 L5.5,9.5 L5.5,10 L6,9.5 L5.5,9.5 Z M5.5,7.5 L6,7.5 L5.5,7 L5.5,7.5 L5.5,7 L5,7.5 L5.5,7.5 L5,7.5 L5.5,8 L5.5,7.5 L5.5,8 L6,7.5 L5.5,7.5 Z M6.5,5.5 L7,5.5 L6.5,5 L6.5,5.5 L6.5,5 L6,5.5 L6.5,5.5 L6,5.5 L6.5,6 L6.5,5.5 L6.5,6 L7,5.5 L6.5,5.5 Z M5.5,4.5 L6,4.5 L5.5,4 L5.5,4.5 L5.5,4 L5,4.5 L5.5,4.5 L5,4.5 L5.5,5 L5.5,4.5 L5.5,5 L6,4.5 L5.5,4.5 Z M3.5,4.5 L4,4.5 L3.5,4 L3.5,4.5 L3.5,4 L3,4.5 L3.5,4.5 L3,4.5 L3.5,5 L3.5,4.5 L3.5,5 L4,4.5 L3.5,4.5 Z M7.5,4.5 L8,4.5 L7.5,4 L7.5,4.5 L7.5,4 L7,4.5 L7.5,4.5 L7,4.5 L7.5,5 L7.5,4.5 L7.5,5 L8,4.5 L7.5,4.5 Z M4.5,5.5 L5,5.5 L4.5,5 L4.5,5.5 L4.5,5 L4,5.5 L4.5,5.5 L4,5.5 L4.5,6 L4.5,5.5 L4.5,6 L5,5.5 L4.5,5.5 Z M6.5,12.5 L7,12.5 L6.5,12 L6.5,12.5 L6.5,12 L6,12.5 L6.5,12.5 L6,12.5 L6.5,13 L6.5,12.5 L6.5,13 L7,12.5 L6.5,12.5 Z M8.5,12.5 L9,12.5 L8.5,12 L8.5,12.5 L8.5,12 L8,12.5 L8.5,12.5 L8,12.5 L8.5,13 L8.5,12.5 L8.5,13 L9,12.5 L8.5,12.5 Z" fill="#FFFFFF" fill-rule="evenodd"></path>
            </g>
        </g>
    </g>
</svg>